<?xml version="1.0" standalone="no"?>
<!DOCTYPE svg PUBLIC "-//W3C//DTD SVG 20010904//EN"
 "http://www.w3.org/TR/2001/REC-SVG-20010904/DTD/svg10.dtd">
<svg version="1.0" xmlns="http://www.w3.org/2000/svg"
 width="512.000000pt" height="512.000000pt" viewBox="0 0 512.000000 512.000000"
 preserveAspectRatio="xMidYMid meet">
<metadata>
Created by potrace 1.14, written by Peter Selinger 2001-2017
</metadata>
<g transform="translate(0.000000,512.000000) scale(0.100000,-0.100000)"
fill="#000000" stroke="none">
<path d="M1550 3445 c-122 -22 -233 -67 -517 -208 -353 -176 -396 -189 -739
-231 -208 -26 -237 -37 -272 -106 -22 -44 -23 -50 -20 -340 3 -333 4 -338 87
-413 41 -37 63 -45 380 -140 111 -33 115 -35 127 -69 33 -95 85 -164 165 -217
195 -130 467 -71 584 128 l30 51 1226 0 1225 0 40 -61 c51 -80 135 -143 226
-170 180 -55 380 21 473 180 l30 51 195 0 c183 0 199 1 240 23 33 16 51 34 68
67 20 41 22 58 22 222 l0 178 -96 0 c-92 0 -97 1 -125 29 -37 38 -39 82 -4
116 21 22 33 25 90 25 36 0 65 4 65 9 0 14 -76 78 -117 99 -99 51 -355 125
-538 156 -150 26 -331 45 -512 55 l-173 10 -331 211 c-427 272 -501 309 -692
345 -109 21 -1022 20 -1137 0z m1891 -1074 c37 -38 39 -82 4 -116 l-24 -25
-815 0 c-448 0 -822 3 -831 6 -19 8 -45 55 -45 84 0 12 13 35 29 51 l29 29
812 0 812 0 29 -29z m-2395 -245 c58 -49 20 -146 -57 -146 -70 0 -106 94 -54
145 31 32 75 32 111 1z m3220 0 c58 -49 20 -146 -57 -146 -81 0 -110 130 -36
160 37 15 65 11 93 -14z"/>
</g>
</svg>
