<svg version="1.0" xmlns="http://www.w3.org/2000/svg" width="682.667" height="682.667" viewBox="0 0 512 512"><path d="M155 167.5c-12.2 2.2-23.3 6.7-51.7 20.8-35.3 17.6-39.6 18.9-73.9 23.1C8.6 214 5.7 215.1 2.2 222c-2.2 4.4-2.3 5-2 34 .3 33.3.4 33.8 8.7 41.3 4.1 3.7 6.3 4.5 38 14 11.1 3.3 11.5 3.5 12.7 6.9 3.3 9.5 8.5 16.4 16.5 21.7 19.5 13 46.7 7.1 58.4-12.8l3-5.1h245.1l4 6.1c5.1 8 13.5 14.3 22.6 17 18 5.5 38-2.1 47.3-18l3-5.1H479c18.3 0 19.9-.1 24-2.3 3.3-1.6 5.1-3.4 6.8-6.7 2-4.1 2.2-5.8 2.2-22.2V273h-9.6c-9.2 0-9.7-.1-12.5-2.9-3.7-3.8-3.9-8.2-.4-11.6 2.1-2.2 3.3-2.5 9-2.5 3.6 0 6.5-.4 6.5-.9 0-1.4-7.6-7.8-11.7-9.9-9.9-5.1-35.5-12.5-53.8-15.6-15-2.6-33.1-4.5-51.2-5.5l-17.3-1-33.1-21.1c-42.7-27.2-50.1-30.9-69.2-34.5-10.9-2.1-102.2-2-113.7 0zm189.1 107.4c3.7 3.8 3.9 8.2.4 11.6l-2.4 2.5h-81.5c-44.8 0-82.2-.3-83.1-.6-1.9-.8-4.5-5.5-4.5-8.4 0-1.2 1.3-3.5 2.9-5.1l2.9-2.9h162.4l2.9 2.9zm-239.5 24.5c5.8 4.9 2 14.6-5.7 14.6-7 0-10.6-9.4-5.4-14.5 3.1-3.2 7.5-3.2 11.1-.1zm322 0c5.8 4.9 2 14.6-5.7 14.6-8.1 0-11-13-3.6-16 3.7-1.5 6.5-1.1 9.3 1.4z"/></svg>